<svg width="313" height="71" viewBox="0 0 313 71" fill="none" xmlns="http://www.w3.org/2000/svg">
<path d="M35.44 70.248C15.472 70.248 0.4 54.696 0.4 35.496C0.4 16.2 14.704 0.551994 35.44 0.551994C46.384 0.551994 53.968 3.912 60.016 11.112L50.512 19.368C46.48 15.144 41.488 13.032 35.44 13.032C22.48 13.032 14.32 23.208 14.32 35.496C14.32 47.784 22.48 57.768 35.728 57.768C42.256 57.768 47.152 55.56 51.088 51.24L60.88 59.592C55.792 65.736 47.152 70.248 35.44 70.248ZM85.342 70.248C71.614 70.248 60.67 58.632 60.67 44.232C60.67 29.832 71.614 18.024 85.342 18.024C93.982 18.024 98.494 21.576 101.182 26.952V19.08H114.046V69H101.47V60.84C98.782 66.504 94.27 70.248 85.342 70.248ZM73.63 44.136C73.63 51.72 79.198 58.536 87.454 58.536C95.998 58.536 101.47 52.008 101.47 44.232C101.47 36.456 95.998 29.736 87.454 29.736C79.198 29.736 73.63 36.36 73.63 44.136ZM140.658 69C130.77 69 125.394 64.392 125.394 53.544V30.12H118.386V19.08H125.394V9L138.354 7.65599V19.08H148.914V30.12H138.354V52.872C138.354 56.04 139.89 57.48 142.386 57.48H147.762V69H140.658ZM175.838 70.248C160.382 70.248 150.014 58.536 150.014 44.136C150.014 29.736 160.862 17.832 175.838 17.832C190.814 17.832 201.182 29.736 201.182 44.136C201.182 45.576 201.086 47.112 200.798 48.744H163.454C164.894 54.6 169.31 58.728 175.838 58.728C181.406 58.728 185.726 55.848 188.03 52.008L198.11 59.592C194.078 65.832 185.726 70.248 175.838 70.248ZM163.454 39.048H188.126C186.686 33.48 181.982 28.968 175.646 28.968C169.502 28.968 164.894 33.096 163.454 39.048ZM206.871 69V19.08H219.639V26.376C222.231 20.808 227.223 17.928 234.903 17.928C245.655 17.928 253.911 25.896 253.911 38.472V69H240.951V41.64C240.951 33 236.631 29.256 230.199 29.256C224.727 29.256 219.831 33 219.831 41.64V69H206.871ZM283.905 70.248C270.177 70.248 259.233 58.632 259.233 44.232C259.233 29.832 270.177 18.024 283.905 18.024C292.545 18.024 297.057 21.576 299.745 26.952V19.08H312.609V69H300.033V60.84C297.345 66.504 292.833 70.248 283.905 70.248ZM272.193 44.136C272.193 51.72 277.761 58.536 286.017 58.536C294.561 58.536 300.033 52.008 300.033 44.232C300.033 36.456 294.561 29.736 286.017 29.736C277.761 29.736 272.193 36.36 272.193 44.136Z" fill="black"/>
</svg>
